<?xml version="1.0" encoding="UTF-8" standalone="no"?>
<!-- Created with Inkscape (http://www.inkscape.org/) -->

<svg
   width="70"
   height="60"
   viewBox="0 0 18.520832 15.874999"
   version="1.1"
   id="svg5"
   xmlns="http://www.w3.org/2000/svg"
   xmlns:svg="http://www.w3.org/2000/svg">
  <defs
     id="defs2">
    <filter
       id="mask-powermask-path-effect2657_inverse"
       style="color-interpolation-filters:sRGB"
       height="100"
       width="100"
       x="-50"
       y="-50">
      <feColorMatrix
         id="mask-powermask-path-effect2657_primitive1"
         values="1"
         type="saturate"
         result="fbSourceGraphic" />
      <feColorMatrix
         id="mask-powermask-path-effect2657_primitive2"
         values="-1 0 0 0 1 0 -1 0 0 1 0 0 -1 0 1 0 0 0 1 0 "
         in="fbSourceGraphic" />
    </filter>
  </defs>
  <g
     id="layer1">
    <g
       id="g19554">
      <ellipse
         style="fill:#000000;stroke:#000000;stroke-width:3.00001"
         id="ellipse2915"
         ry="6.1797585"
         rx="6.0218024"
         cy="8.0116892"
         cx="8.9411926" />
      <path
         id="path5171"
         style="fill:#ffffff;stroke:none;stroke-width:0.264582px;stroke-linecap:butt;stroke-linejoin:miter;stroke-opacity:1"
         d="m 12.720124,2.4078873 -7.7307333,0.104471 c 0,0 -0.8424234,0.7582332 -1.0109962,1.010997 -0.16851,0.2527638 0.5695021,0.3605607 0.5695021,0.3605607 L 5.4544178,3.0616431 H 8.6120909 L 8.5918814,4.4736589 6.5699039,4.5983488 5.6027207,5.6733619 5.707191,10.600277 l 0.3774537,1.07502 -1.705211,1.600741 1.9579528,0.06391 1.199703,-1.347992 2.8644915,0.04367 1.118832,1.34349 2.170265,0.04043 -1.611954,-1.491757 v -0.69422 l 0.408852,-0.609998 0.107858,-5.0549622 -0.950328,-1.0548084 -2.3994177,-0.06391 0.020209,-1.3682083 3.2419097,-0.020209 0.296593,0.485249 c 0,0 1.03043,0.3151092 1.135675,-0.1482997 0.105322,-0.4633378 -1.219929,-0.990777 -1.219929,-0.990777 z m -4.8831021,3.285728 c 0.013716,-5.512e-4 0.026765,0 0.040427,0 h 2.5881431 c 0.44338,0 0.80205,0.3586677 0.80205,0.8020533 0,0.4433824 -0.358676,0.7986858 -0.80205,0.7986858 H 7.8774478 c -0.4433879,0 -0.8020501,-0.3552814 -0.8020501,-0.7986858 0,-0.4294933 0.3374761,-0.7805994 0.7616023,-0.8020533 z M 7.3719862,9.4949499 c 0.00338,-3.68e-4 0.00652,0 0.010411,0 h 0.6032252 c 0.1113795,0 0.2022222,0.208548 0.2022222,0.468424 0,0.2598761 -0.090843,0.4684251 -0.2022222,0.4684251 H 7.3824027 c -0.111385,0 -0.2022293,-0.208549 -0.2022293,-0.4684251 0,-0.251722 0.085563,-0.455906 0.1921222,-0.468424 z m 2.9689438,0 c 0.0034,-3.68e-4 0.0065,0 0.01041,0 h 0.603219 c 0.111386,0 0.202228,0.208548 0.202228,0.468424 0,0.2598761 -0.09078,0.4684251 -0.202228,0.4684251 H 10.35134 c -0.111385,0 -0.202161,-0.208549 -0.202161,-0.4684251 0,-0.251722 0.08556,-0.455906 0.192054,-0.468424 z" />
    </g>
  </g>
</svg>
